:SAMPLES-PER-SECOND 30
:FULLY-SPECIFIED
:DEGREES
401
root  -25.2685 37.0197 -21.5421 171.614 -76.8189 -174.479
RightUpLeg  14.5152 -15.9685 -7.64846
RightLeg  34.1381 -6.90356 -5.3501
RightFoot  -23.4459 1.62272 16.9261
RightToes  0.00048216 0.542163 -0.142577
Spine  19.8274 0.637868 1.02324
Spine1  10.4348 1.47738 -2.19482
HEad  3.9513 9.19711 -3.78839
LeftShoulder1  8.31588 -13.6289 -42.1477
LeftArm  -10.6297 9.299 -25.266
LeftForeArm  28.4184 -73.5888 -39.6912
LeftHand  -0.25398 0.0180481 5.50724
RightShoulder  5.49173 10.1511 34.2668
RightArm  -7.84446 -21.0682 23.9016
RightForeArm  4.30073 76.4582 64.9337
RightHand  0.467504 -9.88568 -13.2442
LeftUpLeg  -28.2563 11.1691 0.0643982
LeftLeg  4.60451 20.9815 -6.29248
LeftFoot  18.7147 -2.82843 10.2226
LeftToes  1.06243e-005 4.65856e-005 -8.18503e-006
402
root  -26.3004 36.9042 -21.688 178.835 -78.4167 178.823
RightUpLeg  6.89114 -15.5839 -9.02455
RightLeg  48.6439 -7.40388 -9.26321
RightFoot  -12.8453 0.224328 15.2694
RightToes  0.00048216 0.542163 -0.142577
Spine  24.9656 0.749217 -1.78346
Spine1  8.40137 0.455973 -0.753186
HEad  1.48385 8.90724 -4.17121
LeftShoulder1  8.70426 -14.3655 -42.3094
LeftArm  -10.349 5.06519 -25.1108
LeftForeArm  20.5812 -70.3202 -31.8164
LeftHand  -0.25398 0.0180481 5.50724
RightShoulder  5.62167 10.4008 34.4759
RightArm  -9.33009 -18.5074 24.3578
RightForeArm  -3.70984 75.2155 55.6408
RightHand  0.338169 -8.93904 -12.496
LeftUpLeg  -32.3594 19.3615 -8.46397
LeftLeg  10.887 8.92044 -2.53428
LeftFoot  19.8166 -4.19073 14.5637
LeftToes  1.06243e-005 4.65856e-005 -8.18503e-006
403
root  -26.988 36.8907 -21.7067 -173.959 -78.3554 172.284
RightUpLeg  -3.78447 -14.1931 -9.76228
RightLeg  62.3167 -5.266 -11.1397
RightFoot  -0.0195391 -0.711979 7.00261
RightToes  0.00048216 0.542163 -0.142577
Spine  30.7756 1.03736 -2.9978
Spine1  7.80281 0.49579 -1.30989
HEad  -2.07301 8.25091 -4.96705
LeftShoulder1  9.07991 -15.3949 -41.6902
LeftArm  -10.1962 -0.729176 -25.6312
LeftForeArm  13.4449 -65.7221 -24.7821
LeftHand  -0.25398 0.0180481 5.50724
RightShoulder  5.68771 10.7347 33.9972
RightArm  -11.5381 -14.481 25.0682
RightForeArm  -10.9592 73.2594 46.3033
RightHand  0.248386 -8.52583 -10.8814
LeftUpLeg  -35.4752 24.1023 -14.2235
LeftLeg  14.8921 3.08199 -0.473173
LeftFoot  16.44 -3.93627 15.3863
LeftToes  1.06243e-005 4.65856e-005 -8.18503e-006
404
root  -27.5423 37.0128 -21.6594 -171.271 -77.0404 170.675
RightUpLeg  -14.4121 -12.1522 -9.4615
RightLeg  70.4543 -2.39996 -8.36984
RightFoot  5.93131 -0.260571 1.74152
RightToes  0.00048216 0.542163 -0.142577
Spine  35.727 1.18237 -2.9593
Spine1  8.63705 1.07079 -2.99738
HEad  -6.46601 7.89149 -6.25842
LeftShoulder1  9.12101 -16.2759 -39.8612
LeftArm  -10.6947 -7.31921 -27.0653
LeftForeArm  8.1183 -60.5002 -19.6196
LeftHand  -0.25398 0.0180481 5.50724
RightShoulder  5.66691 11.2029 32.5895
RightArm  -13.4685 -8.47547 25.9933
RightForeArm  -18.259 70.1586 37.0899
RightHand  0.188056 -8.30041 -9.34264
LeftUpLeg  -36.8969 26.2458 -15.8189
LeftLeg  16.3902 1.92465 -0.501684
LeftFoot  14.1181 -3.45837 14.8402
LeftToes  1.06243e-005 4.65856e-005 -8.18503e-006
405
root  -28.15 37.3354 -21.6026 -173.735 -76.2386 174.947
RightUpLeg  -23.6928 -11.3802 -7.85484
RightLeg  72.8312 -0.942623 -4.58883
RightFoot  4.81913 -0.296424 2.40946
RightToes  0.00048216 0.542163 -0.142577
Spine  39.3765 0.687815 -1.72538
Spine1  9.74209 1.21992 -3.98145
HEad  -10.9031 7.78209 -7.8122
LeftShoulder1  8.93763 -16.9506 -37.5426
LeftArm  -12.1563 -14.0063 -28.7208
LeftForeArm  4.27865 -54.9104 -15.8016
LeftHand  -0.25398 0.0180481 5.50724
RightShoulder  5.5561 11.7032 30.5745
RightArm  -14.6156 -0.570138 26.9271
RightForeArm  -25.5166 65.3966 28.5105
RightHand  0.115813 -7.60851 -8.35581
LeftUpLeg  -37.6417 27.1979 -15.3958
LeftLeg  15.9873 1.52013 -1.23466
LeftFoot  14.0213 -3.41817 14.7212
LeftToes  1.06243e-005 4.65856e-005 -8.18503e-006
406
root  -28.7568 37.674 -21.6021 -176.972 -76.3331 -179.551
RightUpLeg  -31.4651 -12.113 -5.5493
RightLeg  70.2822 -0.94105 -3.72076
RightFoot  2.23644 -0.714488 6.08326
RightToes  0.00048216 0.542163 -0.142577
Spine  42.4686 -0.0424239 -0.506343
Spine1  10.4969 0.893061 -4.05785
HEad  -14.6981 7.43481 -9.0643
LeftShoulder1  8.83972 -17.6763 -35.631
LeftArm  -14.3681 -20.5679 -29.9187
LeftForeArm  1.35353 -48.7645 -12.7216
LeftHand  -0.25398 0.0180481 5.50724
RightShoulder  5.43484 12.1449 28.7302
RightArm  -15.2731 8.32178 27.2038
RightForeArm  -31.0423 59.1809 21.6641
RightHand  0.0174239 -6.24164 -7.37143
LeftUpLeg  -38.6174 26.7067 -14.5564
LeftLeg  15.5169 1.69119 -1.49493
LeftFoot  13.6794 -3.36514 14.6978
LeftToes  1.06243e-005 4.65856e-005 -8.18503e-006
407
root  -29.3484 37.9355 -21.6797 -179.951 -76.6389 -174.431
RightUpLeg  -37.4509 -13.203 -2.6741
RightLeg  63.7702 -2.75847 -6.529
RightFoot  1.50647 -0.748503 6.72295
RightToes  0.00048216 0.542163 -0.142577
Spine  45.6956 -0.618956 0.382903
Spine1  10.8163 0.673062 -3.96792
HEad  -17.8386 6.78107 -9.6624
LeftShoulder1  8.86173 -18.4524 -34.2683
LeftArm  -16.89 -27.1451 -30.5099
LeftForeArm  -1.00549 -42.19 -10.2056
LeftHand  -0.25398 0.0180481 5.50724
RightShoulder  5.40802 12.5986 27.5495
RightArm  -16.0357 17.0669 26.1899
RightForeArm  -33.9817 52.3957 16.817
RightHand  -0.0680003 -4.59209 -5.75021
LeftUpLeg  -39.9917 26.3425 -14.1613
LeftLeg  15.8187 1.45811 -1.3297
LeftFoot  12.3781 -3.07147 14.1848
LeftToes  1.06243e-005 4.65856e-005 -8.18503e-006
408
root  -29.95 38.1506 -21.8079 177.026 -76.7137 -169.368
RightUpLeg  -41.4468 -13.7069 0.419476
RightLeg  53.4938 -5.62362 -8.52077
RightFoot  1.25661 -0.470692 4.3366
RightToes  0.00048216 0.542163 -0.142577
Spine  48.678 -1.04428 1.36836
Spine1  11.165 0.734014 -4.03947
HEad  -20.975 6.07415 -9.9025
LeftShoulder1  8.88403 -19.1032 -33.2055
LeftArm  -19.672 -33.9713 -30.3109
LeftForeArm  -2.85813 -35.7628 -8.24205
LeftHand  -0.25398 0.0180481 5.50724
RightShoulder  5.45081 13.1555 26.6529
RightArm  -17.5057 25.1448 23.9469
RightForeArm  -35.1598 45.764 13.4648
RightHand  -0.0904866 -3.19668 -3.6233
LeftUpLeg  -41.8962 27.1895 -14.6201
LeftLeg  16.4154 -0.165482 -1.16579
LeftFoot  11.4718 -2.86255 13.7695
LeftToes  1.06243e-005 4.65856e-005 -8.18503e-006
409
root  -30.5861 38.2611 -22.0141 175.817 -77.14 -165.846
RightUpLeg  -43.7574 -13.8975 2.68873
RightLeg  39.7784 -5.95598 -5.74958
RightFoot  0.566554 -0.500391 4.85792
RightToes  0.00048216 0.542163 -0.142577
Spine  50.6708 -1.46995 2.14636
Spine1  12.1234 0.782351 -4.14667
HEad  -24.5259 5.30944 -10.2147
LeftShoulder1  8.90067 -19.7977 -32.0991
LeftArm  -23.0857 -40.7979 -29.1654
LeftForeArm  -3.99495 -30.1098 -6.77007
LeftHand  -0.25398 0.0180481 5.50724
RightShoulder  5.41412 13.7028 25.3406
RightArm  -20.1041 32.4316 21.0673
RightForeArm  -35.8646 39.6037 11.074
RightHand  -0.0590035 -2.25622 -1.56402
LeftUpLeg  -44.7468 27.9874 -16.09
LeftLeg  17.7224 -2.41179 -0.991188
LeftFoot  10.7844 -2.80781 13.9509
LeftToes  1.06243e-005 4.65856e-005 -8.18503e-006
410
root  -31.2882 38.1893 -22.3675 178.137 -78.6689 -165.781
RightUpLeg  -44.9033 -14.6713 3.75122
RightLeg  25.3296 -1.17395 -0.929268
RightFoot  1.72389 -1.04312 9.05888
RightToes  0.00048216 0.542163 -0.142577
Spine  52.5122 -2.06367 2.2976
Spine1  12.3613 0.588708 -4.31886
HEad  -27.5169 4.36191 -10.3497
LeftShoulder1  8.93307 -20.7979 -30.6362
LeftArm  -26.8895 -46.3364 -27.4936
LeftForeArm  -4.27706 -25.7428 -5.73513
LeftHand  -0.25398 0.0180481 5.50724
RightShoulder  5.26373 13.9835 23.9056
RightArm  -23.241 38.2106 17.859
RightForeArm  -37.0078 34.2258 9.38382
RightHand  -0.0120347 -1.50918 -0.0100666
LeftUpLeg  -47.7277 26.7684 -17.3029
LeftLeg  20.4723 -3.20536 -0.936629
LeftFoot  9.10127 -2.63639 14.2313
LeftToes  1.06243e-005 4.65856e-005 -8.18503e-006
